<svg width="412" height="395" viewBox="0 0 412 395" fill="none" xmlns="http://www.w3.org/2000/svg">
<path d="M411.556 197.397C411.556 306.416 319.426 394.794 205.778 394.794C92.1298 394.794 0 306.416 0 197.397C0 88.3776 92.1298 0 205.778 0C319.426 0 411.556 88.3776 411.556 197.397Z" fill="#505050" fill-opacity="0.5"/>
<path d="M163.342 338.991C139.076 339.18 120.229 333.193 106.8 321.031C93.3719 308.869 86.5652 290.921 86.3802 267.189L85.3268 131.993C85.1418 108.26 91.668 90.2087 104.905 77.8385C118.143 65.4683 136.894 59.1887 161.16 58.9996L214.759 58.5819L214.964 84.9811L161.366 85.3988C149.1 85.4944 139.128 89.1722 131.451 96.4322C124.039 103.423 120.378 112.786 120.47 124.519L121.635 274.114C121.727 285.847 125.534 295.284 133.056 302.426C140.843 309.299 150.87 312.687 163.136 312.592L216.735 312.174L216.94 338.573L163.342 338.991Z" fill="#1A5E0C"/>
<path d="M97.7531 310.3C93.9531 310.3 92.0531 306.4 92.0531 298.6C92.0531 294.8 93.7531 288.8 97.1531 280.6C100.553 272.2 105.053 262.5 110.653 251.5C116.453 240.3 122.953 228.7 130.153 216.7C137.353 204.5 144.753 192.6 152.353 181C159.953 169.4 167.253 158.9 174.253 149.5C181.253 139.9 187.553 132.3 193.153 126.7C198.753 121.1 203.053 118.3 206.053 118.3C207.453 118.3 209.353 119 211.753 120.4C214.153 121.8 216.353 123.4 218.353 125.2C220.353 127 221.353 128.6 221.353 130C221.353 133.6 220.853 137.5 219.853 141.7C219.053 145.7 218.353 149.5 217.753 153.1C217.353 155.1 216.553 159.6 215.353 166.6C214.153 173.4 212.953 181.3 211.753 190.3C210.753 199.1 210.253 207.5 210.253 215.5C210.253 223.1 211.053 229.6 212.653 235C214.253 240.4 217.153 243.1 221.353 243.1C226.753 243.1 233.353 240.6 241.153 235.6C248.953 230.6 257.253 224.2 266.053 216.4C275.053 208.4 283.953 200 292.753 191.2C301.753 182.2 309.953 173.8 317.353 166C324.953 158 331.253 151.5 336.253 146.5C341.453 141.5 344.553 139 345.553 139C346.153 139 346.453 139.4 346.453 140.2C346.453 141.8 345.753 143.8 344.353 146.2C341.953 150.8 338.153 156.6 332.953 163.6C327.953 170.4 322.053 177.8 315.253 185.8C308.453 193.8 301.153 201.7 293.353 209.5C285.753 217.3 278.053 224.4 270.253 230.8C262.453 237.2 254.953 242.4 247.753 246.4C240.553 250.2 234.053 252.1 228.253 252.1C219.053 252.1 212.053 249.6 207.253 244.6C202.453 239.4 199.153 232.8 197.353 224.8C195.553 216.6 194.653 208.1 194.653 199.3C194.653 189.1 195.153 180.3 196.153 172.9C197.153 165.3 198.353 156.7 199.753 147.1C190.753 156.5 181.053 167.6 170.653 180.4C160.453 193 150.553 206.5 140.953 220.9C131.553 235.3 123.353 249.8 116.353 264.4C109.353 278.8 104.653 292.5 102.253 305.5C102.053 306.7 101.653 307.8 101.053 308.8C100.453 309.8 99.3531 310.3 97.7531 310.3ZM311.353 300.7C306.953 300.7 304.053 298.6 302.653 294.4C301.453 290.2 300.853 286.4 300.853 283C300.853 279.2 301.753 273.5 303.553 265.9C305.553 258.1 308.153 249.2 311.353 239.2C314.553 229.2 318.153 218.8 322.153 208C326.353 197 330.753 186.3 335.353 175.9C340.153 165.5 344.853 156.2 349.453 148C354.053 139.6 358.453 132.9 362.653 127.9C366.853 122.9 370.553 120.4 373.753 120.4C375.353 120.4 377.853 121.2 381.253 122.8C384.653 124.4 386.353 126.3 386.353 128.5C386.353 129.1 384.553 132.2 380.953 137.8C377.353 143.2 372.653 150.3 366.853 159.1C361.253 167.9 355.253 177.7 348.853 188.5C342.453 199.1 336.353 210.1 330.553 221.5C324.953 232.9 320.353 243.9 316.753 254.5C313.153 264.9 311.353 274.2 311.353 282.4V284.8C311.353 286.2 311.553 287.6 311.953 289C312.353 290.2 313.253 290.8 314.653 290.8C317.053 290.8 318.253 292 318.253 294.4C318.253 295.8 317.653 297.2 316.453 298.6C315.253 300 313.553 300.7 311.353 300.7Z" fill="#927F15"/>
</svg>
